  0
SECTION
  2
HEADER
  9
$ACADVER
  1
AC1024
  9
$ACADMAINTVER
 70
6
  9
$DWGCODEPAGE
  3
ANSI_1252
  9
$LASTSAVEDBY
  1
ezdxf
  9
$INSBASE
 10
0.0
 20
0.0
 30
0.0
  9
$EXTMIN
 10
1e+20
 20
1e+20
 30
1e+20
  9
$EXTMAX
 10
-1e+20
 20
-1e+20
 30
-1e+20
  9
$LIMMIN
 10
0.0
 20
0.0
  9
$LIMMAX
 10
420.0
 20
297.0
  9
$ORTHOMODE
 70
0
  9
$REGENMODE
 70
1
  9
$FILLMODE
 70
1
  9
$QTEXTMODE
 70
0
  9
$MIRRTEXT
 70
1
  9
$LTSCALE
 40
1.0
  9
$ATTMODE
 70
1
  9
$TEXTSIZE
 40
2.5
  9
$TRACEWID
 40
1.0
  9
$TEXTSTYLE
  7
Standard
  9
$CLAYER
  8
0
  9
$CELTYPE
  6
ByLayer
  9
$CECOLOR
 62
256
  9
$CELTSCALE
 40
1.0
  9
$DISPSILH
 70
0
  9
$DIMSCALE
 40
1.0
  9
$DIMASZ
 40
2.5
  9
$DIMEXO
 40
0.625
  9
$DIMDLI
 40
3.75
  9
$DIMRND
 40
0.0
  9
$DIMDLE
 40
0.0
  9
$DIMEXE
 40
1.25
  9
$DIMTP
 40
0.0
  9
$DIMTM
 40
0.0
  9
$DIMTXT
 40
2.5
  9
$DIMCEN
 40
2.5
  9
$DIMTSZ
 40
0.0
  9
$DIMTOL
 70
0
  9
$DIMLIM
 70
0
  9
$DIMTIH
 70
0
  9
$DIMTOH
 70
0
  9
$DIMSE1
 70
0
  9
$DIMSE2
 70
0
  9
$DIMTAD
 70
1
  9
$DIMZIN
 70
8
  9
$DIMBLK
  1

  9
$DIMASO
 70
1
  9
$DIMSHO
 70
1
  9
$DIMPOST
  1

  9
$DIMAPOST
  1

  9
$DIMALT
 70
0
  9
$DIMALTD
 70
3
  9
$DIMALTF
 40
0.03937007874
  9
$DIMLFAC
 40
1.0
  9
$DIMTOFL
 70
1
  9
$DIMTVP
 40
0.0
  9
$DIMTIX
 70
0
  9
$DIMSOXD
 70
0
  9
$DIMSAH
 70
0
  9
$DIMBLK1
  1

  9
$DIMBLK2
  1

  9
$DIMSTYLE
  2
ISO-25
  9
$DIMCLRD
 70
0
  9
$DIMCLRE
 70
0
  9
$DIMCLRT
 70
0
  9
$DIMTFAC
 40
1.0
  9
$DIMGAP
 40
0.625
  9
$DIMJUST
 70
0
  9
$DIMSD1
 70
0
  9
$DIMSD2
 70
0
  9
$DIMTOLJ
 70
0
  9
$DIMTZIN
 70
8
  9
$DIMALTZ
 70
0
  9
$DIMALTTZ
 70
0
  9
$DIMUPT
 70
0
  9
$DIMDEC
 70
2
  9
$DIMTDEC
 70
2
  9
$DIMALTU
 70
2
  9
$DIMALTTD
 70
3
  9
$DIMTXSTY
  7
Standard
  9
$DIMAUNIT
 70
0
  9
$DIMADEC
 70
0
  9
$DIMALTRND
 40
0.0
  9
$DIMAZIN
 70
0
  9
$DIMDSEP
 70
44
  9
$DIMATFIT
 70
3
  9
$DIMFRAC
 70
0
  9
$DIMLDRBLK
  1

  9
$DIMLUNIT
 70
2
  9
$DIMLWD
 70
-2
  9
$DIMLWE
 70
-2
  9
$DIMTMOVE
 70
0
  9
$DIMFXL
 40
1.0
  9
$DIMFXLON
 70
0
  9
$DIMJOGANG
 40
0.785398163397
  9
$DIMTFILL
 70
0
  9
$DIMTFILLCLR
 70
0
  9
$DIMARCSYM
 70
0
  9
$DIMLTYPE
  6

  9
$DIMLTEX1
  6

  9
$DIMLTEX2
  6

  9
$DIMTXTDIRECTION
 70
0
  9
$LUNITS
 70
2
  9
$LUPREC
 70
4
  9
$SKETCHINC
 40
1.0
  9
$FILLETRAD
 40
10.0
  9
$AUNITS
 70
0
  9
$AUPREC
 70
2
  9
$MENU
  1
.
  9
$ELEVATION
 40
0.0
  9
$PELEVATION
 40
0.0
  9
$THICKNESS
 40
0.0
  9
$LIMCHECK
 70
0
  9
$CHAMFERA
 40
0.0
  9
$CHAMFERB
 40
0.0
  9
$CHAMFERC
 40
0.0
  9
$CHAMFERD
 40
0.0
  9
$SKPOLY
 70
0
  9
$TDCREATE
 40
2461068.887939815
  9
$TDUCREATE
 40
2458532.153996898
  9
$TDUPDATE
 40
2461068.887939815
  9
$TDUUPDATE
 40
2458532.1544311
  9
$TDINDWG
 40
0.0
  9
$TDUSRTIMER
 40
0.0
  9
$USRTIMER
 70
1
  9
$ANGBASE
 50
0.0
  9
$ANGDIR
 70
0
  9
$PDMODE
 70
0
  9
$PDSIZE
 40
0.0
  9
$PLINEWID
 40
0.0
  9
$SPLFRAME
 70
0
  9
$SPLINETYPE
 70
6
  9
$SPLINESEGS
 70
8
  9
$HANDSEED
  5
CE
  9
$SURFTAB1
 70
6
  9
$SURFTAB2
 70
6
  9
$SURFTYPE
 70
6
  9
$SURFU
 70
6
  9
$SURFV
 70
6
  9
$UCSBASE
  2

  9
$UCSNAME
  2

  9
$UCSORG
 10
0.0
 20
0.0
 30
0.0
  9
$UCSXDIR
 10
1.0
 20
0.0
 30
0.0
  9
$UCSYDIR
 10
0.0
 20
1.0
 30
0.0
  9
$UCSORTHOREF
  2

  9
$UCSORTHOVIEW
 70
0
  9
$UCSORGTOP
 10
0.0
 20
0.0
 30
0.0
  9
$UCSORGBOTTOM
 10
0.0
 20
0.0
 30
0.0
  9
$UCSORGLEFT
 10
0.0
 20
0.0
 30
0.0
  9
$UCSORGRIGHT
 10
0.0
 20
0.0
 30
0.0
  9
$UCSORGFRONT
 10
0.0
 20
0.0
 30
0.0
  9
$UCSORGBACK
 10
0.0
 20
0.0
 30
0.0
  9
$PUCSBASE
  2

  9
$PUCSNAME
  2

  9
$PUCSORG
 10
0.0
 20
0.0
 30
0.0
  9
$PUCSXDIR
 10
1.0
 20
0.0
 30
0.0
  9
$PUCSYDIR
 10
0.0
 20
1.0
 30
0.0
  9
$PUCSORTHOREF
  2

  9
$PUCSORTHOVIEW
 70
0
  9
$PUCSORGTOP
 10
0.0
 20
0.0
 30
0.0
  9
$PUCSORGBOTTOM
 10
0.0
 20
0.0
 30
0.0
  9
$PUCSORGLEFT
 10
0.0
 20
0.0
 30
0.0
  9
$PUCSORGRIGHT
 10
0.0
 20
0.0
 30
0.0
  9
$PUCSORGFRONT
 10
0.0
 20
0.0
 30
0.0
  9
$PUCSORGBACK
 10
0.0
 20
0.0
 30
0.0
  9
$USERI1
 70
0
  9
$USERI2
 70
0
  9
$USERI3
 70
0
  9
$USERI4
 70
0
  9
$USERI5
 70
0
  9
$USERR1
 40
0.0
  9
$USERR2
 40
0.0
  9
$USERR3
 40
0.0
  9
$USERR4
 40
0.0
  9
$USERR5
 40
0.0
  9
$WORLDVIEW
 70
1
  9
$SHADEDGE
 70
3
  9
$SHADEDIF
 70
70
  9
$TILEMODE
 70
1
  9
$MAXACTVP
 70
64
  9
$PINSBASE
 10
0.0
 20
0.0
 30
0.0
  9
$PLIMCHECK
 70
0
  9
$PEXTMIN
 10
1e+20
 20
1e+20
 30
1e+20
  9
$PEXTMAX
 10
-1e+20
 20
-1e+20
 30
-1e+20
  9
$PLIMMIN
 10
0.0
 20
0.0
  9
$PLIMMAX
 10
420.0
 20
297.0
  9
$UNITMODE
 70
0
  9
$VISRETAIN
 70
1
  9
$PLINEGEN
 70
0
  9
$PSLTSCALE
 70
1
  9
$TREEDEPTH
 70
3020
  9
$CMLSTYLE
  2
Standard
  9
$CMLJUST
 70
0
  9
$CMLSCALE
 40
20.0
  9
$PROXYGRAPHICS
 70
1
  9
$MEASUREMENT
 70
1
  9
$CELWEIGHT
370
-1
  9
$ENDCAPS
280
0
  9
$JOINSTYLE
280
0
  9
$LWDISPLAY
290
0
  9
$INSUNITS
 70
4
  9
$HYPERLINKBASE
  1

  9
$STYLESHEET
  1

  9
$XEDIT
290
1
  9
$CEPSNTYPE
380
0
  9
$PSTYLEMODE
290
1
  9
$FINGERPRINTGUID
  2
{8C53BD27-758B-4740-95C2-6B1D9F6D2775}
  9
$VERSIONGUID
  2
{53AD72A4-66CB-4305-9D55-4224D282028B}
  9
$EXTNAMES
290
1
  9
$PSVPSCALE
 40
0.0
  9
$OLESTARTUP
290
0
  9
$SORTENTS
280
127
  9
$INDEXCTL
280
0
  9
$HIDETEXT
280
1
  9
$XCLIPFRAME
280
1
  9
$HALOGAP
280
0
  9
$OBSCOLOR
 70
257
  9
$OBSLTYPE
280
0
  9
$INTERSECTIONDISPLAY
280
0
  9
$INTERSECTIONCOLOR
 70
257
  9
$DIMASSOC
280
2
  9
$PROJECTNAME
  1

  9
$CAMERADISPLAY
290
0
  9
$LENSLENGTH
 40
50.0
  9
$CAMERAHEIGHT
 40
0.0
  9
$STEPSPERSEC
 40
24.0
  9
$STEPSIZE
 40
100.0
  9
$3DDWFPREC
 40
2.0
  9
$PSOLWIDTH
 40
0.005
  9
$PSOLHEIGHT
 40
0.08
  9
$LOFTANG1
 40
1.570796326795
  9
$LOFTANG2
 40
1.570796326795
  9
$LOFTMAG1
 40
0.0
  9
$LOFTMAG2
 40
0.0
  9
$LOFTPARAM
 70
7
  9
$LOFTNORMALS
280
1
  9
$LATITUDE
 40
37.795
  9
$LONGITUDE
 40
-122.394
  9
$NORTHDIRECTION
 40
0.0
  9
$TIMEZONE
 70
-8000
  9
$LIGHTGLYPHDISPLAY
280
1
  9
$TILEMODELIGHTSYNCH
280
1
  9
$CMATERIAL
347
20
  9
$SOLIDHIST
280
0
  9
$SHOWHIST
280
1
  9
$DWFFRAME
280
2
  9
$DGNFRAME
280
2
  9
$REALWORLDSCALE
290
1
  9
$INTERFERECOLOR
 62
256
  9
$CSHADOW
280
0
  9
$SHADOWPLANELOCATION
 40
0.0
  0
ENDSEC
  0
SECTION
  2
CLASSES
  0
CLASS
  1
ACDBDICTIONARYWDFLT
  2
AcDbDictionaryWithDefault
  3
ObjectDBX Classes
 90
0
 91
0
280
0
281
0
  0
CLASS
  1
SUN
  2
AcDbSun
  3
SCENEOE
 90
1153
 91
0
280
0
281
0
  0
CLASS
  1
VISUALSTYLE
  2
AcDbVisualStyle
  3
ObjectDBX Classes
 90
4095
 91
0
280
0
281
0
  0
CLASS
  1
MATERIAL
  2
AcDbMaterial
  3
ObjectDBX Classes
 90
1153
 91
0
280
0
281
0
  0
CLASS
  1
SCALE
  2
AcDbScale
  3
ObjectDBX Classes
 90
1153
 91
0
280
0
281
0
  0
CLASS
  1
TABLESTYLE
  2
AcDbTableStyle
  3
ObjectDBX Classes
 90
4095
 91
0
280
0
281
0
  0
CLASS
  1
MLEADERSTYLE
  2
AcDbMLeaderStyle
  3
ACDB_MLEADERSTYLE_CLASS
 90
4095
 91
0
280
0
281
0
  0
CLASS
  1
DICTIONARYVAR
  2
AcDbDictionaryVar
  3
ObjectDBX Classes
 90
0
 91
0
280
0
281
0
  0
CLASS
  1
CELLSTYLEMAP
  2
AcDbCellStyleMap
  3
ObjectDBX Classes
 90
1152
 91
0
280
0
281
0
  0
CLASS
  1
MENTALRAYRENDERSETTINGS
  2
AcDbMentalRayRenderSettings
  3
SCENEOE
 90
1024
 91
0
280
0
281
0
  0
CLASS
  1
ACDBDETAILVIEWSTYLE
  2
AcDbDetailViewStyle
  3
ObjectDBX Classes
 90
1025
 91
0
280
0
281
0
  0
CLASS
  1
ACDBSECTIONVIEWSTYLE
  2
AcDbSectionViewStyle
  3
ObjectDBX Classes
 90
1025
 91
0
280
0
281
0
  0
CLASS
  1
RASTERVARIABLES
  2
AcDbRasterVariables
  3
ISM
 90
0
 91
0
280
0
281
0
  0
CLASS
  1
LAYOUT
  2
AcDbLayout
  3
ObjectDBX Classes
 90
0
 91
0
280
0
281
0
  0
CLASS
  1
ACDBPLACEHOLDER
  2
AcDbPlaceHolder
  3
ObjectDBX Classes
 90
0
 91
0
280
0
281
0
  0
ENDSEC
  0
SECTION
  2
TABLES
  0
TABLE
  2
VPORT
  5
8
330
0
100
AcDbSymbolTable
 70
1
  0
VPORT
  5
23
330
8
100
AcDbSymbolTableRecord
100
AcDbViewportTableRecord
  2
*Active
 70
0
 10
0.0
 20
0.0
 11
1.0
 21
1.0
 12
0.0
 22
0.0
 13
0.0
 23
0.0
 14
0.5
 24
0.5
 15
0.5
 25
0.5
 16
0.0
 26
0.0
 36
1.0
 17
0.0
 27
0.0
 37
0.0
 40
1000.0
 41
1.34
 42
50.0
 43
0.0
 44
0.0
 50
0.0
 51
0.0
 71
0
 72
1000
 73
1
 74
3
 75
0
 76
0
 77
0
 78
0
281
0
 65
0
146
0.0
  0
ENDTAB
  0
TABLE
  2
LTYPE
  5
2
330
0
100
AcDbSymbolTable
 70
3
  0
LTYPE
  5
24
330
2
100
AcDbSymbolTableRecord
100
AcDbLinetypeTableRecord
  2
ByBlock
 70
0
  3

 72
65
 73
0
 40
0.0
  0
LTYPE
  5
25
330
2
100
AcDbSymbolTableRecord
100
AcDbLinetypeTableRecord
  2
ByLayer
 70
0
  3

 72
65
 73
0
 40
0.0
  0
LTYPE
  5
26
330
2
100
AcDbSymbolTableRecord
100
AcDbLinetypeTableRecord
  2
Continuous
 70
0
  3

 72
65
 73
0
 40
0.0
  0
ENDTAB
  0
TABLE
  2
LAYER
  5
1
330
0
100
AcDbSymbolTable
 70
5
  0
LAYER
  5
27
330
1
100
AcDbSymbolTableRecord
100
AcDbLayerTableRecord
  2
0
 70
0
 62
7
  6
Continuous
370
-3
390
13
347
21
  0
LAYER
  5
28
330
1
100
AcDbSymbolTableRecord
100
AcDbLayerTableRecord
  2
Defpoints
 70
0
 62
7
  6
Continuous
290
0
370
-3
390
13
347
21
  0
LAYER
  5
2F
330
1
100
AcDbSymbolTableRecord
100
AcDbLayerTableRecord
  2
CUT
 70
0
 62
7
  6
Continuous
370
-3
390
13
347
21
  0
LAYER
  5
30
330
1
100
AcDbSymbolTableRecord
100
AcDbLayerTableRecord
  2
HOLES
 70
0
 62
5
  6
Continuous
370
-3
390
13
347
21
  0
LAYER
  5
31
330
1
100
AcDbSymbolTableRecord
100
AcDbLayerTableRecord
  2
ENGRAVE
 70
0
 62
4
  6
Continuous
370
-3
390
13
347
21
  0
ENDTAB
  0
TABLE
  2
STYLE
  5
5
330
0
100
AcDbSymbolTable
 70
1
  0
STYLE
  5
29
330
5
100
AcDbSymbolTableRecord
100
AcDbTextStyleTableRecord
  2
Standard
 70
0
 40
0.0
 41
1.0
 50
0.0
 71
0
 42
2.5
  3
txt
  4

  0
ENDTAB
  0
TABLE
  2
VIEW
  5
7
330
0
100
AcDbSymbolTable
 70
0
  0
ENDTAB
  0
TABLE
  2
UCS
  5
6
330
0
100
AcDbSymbolTable
 70
0
  0
ENDTAB
  0
TABLE
  2
APPID
  5
3
330
0
100
AcDbSymbolTable
 70
3
  0
APPID
  5
2A
330
3
100
AcDbSymbolTableRecord
100
AcDbRegAppTableRecord
  2
ACAD
 70
0
  0
APPID
  5
CB
330
3
100
AcDbSymbolTableRecord
100
AcDbRegAppTableRecord
  2
HATCHBACKGROUNDCOLOR
 70
0
  0
APPID
  5
CC
330
3
100
AcDbSymbolTableRecord
100
AcDbRegAppTableRecord
  2
EZDXF
 70
0
  0
ENDTAB
  0
TABLE
  2
DIMSTYLE
  5
4
330
0
100
AcDbSymbolTable
 70
1
100
AcDbDimStyleTable
  0
DIMSTYLE
105
2B
330
4
100
AcDbSymbolTableRecord
100
AcDbDimStyleTableRecord
  2
Standard
 70
0
 40
1.0
 41
2.5
 42
0.625
 43
3.75
 44
1.25
 45
0.0
 46
0.0
 47
0.0
 48
0.0
 49
2.5
140
2.5
141
2.5
142
0.0
143
0.03937007874
144
1.0
145
0.0
146
1.0
147
0.625
148
0.0
 69
0
 70
0
 71
0
 72
0
 73
0
 74
0
 75
0
 76
0
 77
1
 78
8
 79
3
170
0
171
3
172
1
173
0
174
0
175
0
176
0
177
0
178
0
179
2
271
2
272
2
273
2
274
3
275
0
276
0
277
2
278
44
279
0
280
0
281
0
282
0
283
0
284
8
285
0
286
0
288
0
289
3
290
0
371
-2
372
-2
  0
ENDTAB
  0
TABLE
  2
BLOCK_RECORD
  5
9
330
0
100
AcDbSymbolTable
 70
2
  0
BLOCK_RECORD
  5
17
330
9
100
AcDbSymbolTableRecord
100
AcDbBlockTableRecord
  2
*Model_Space
340
1A
 70
0
280
1
281
0
  0
BLOCK_RECORD
  5
1B
330
9
100
AcDbSymbolTableRecord
100
AcDbBlockTableRecord
  2
*Paper_Space
340
1E
 70
0
280
1
281
0
  0
ENDTAB
  0
ENDSEC
  0
SECTION
  2
BLOCKS
  0
BLOCK
  5
18
330
17
100
AcDbEntity
  8
0
100
AcDbBlockBegin
  2
*Model_Space
 70
0
 10
0.0
 20
0.0
 30
0.0
  3
*Model_Space
  1

  0
ENDBLK
  5
19
330
17
100
AcDbEntity
  8
0
100
AcDbBlockEnd
  0
BLOCK
  5
1C
330
1B
100
AcDbEntity
  8
0
100
AcDbBlockBegin
  2
*Paper_Space
 70
0
 10
0.0
 20
0.0
 30
0.0
  3
*Paper_Space
  1

  0
ENDBLK
  5
1D
330
1B
100
AcDbEntity
  8
0
100
AcDbBlockEnd
  0
ENDSEC
  0
SECTION
  2
ENTITIES
  0
TEXT
  5
32
330
17
100
AcDbEntity
  8
ENGRAVE
100
AcDbText
 10
0.0
 20
40.64
 30
0.0
 40
6.35
  1
FRONT LIPS (1" tall)
 11
0.0
 21
40.64
 31
0.0
100
AcDbText
  0
LWPOLYLINE
  5
33
330
17
100
AcDbEntity
  8
CUT
100
AcDbPolyline
 90
5
 70
1
 10
0.0
 20
10.16
 10
41.275
 20
10.16
 10
41.275
 20
35.56
 10
0.0
 20
35.56
 10
0.0
 20
10.16
  0
CIRCLE
  5
34
330
17
100
AcDbEntity
  8
HOLES
100
AcDbCircle
 10
3.175
 20
22.86
 30
0.0
 40
3.175
  0
CIRCLE
  5
35
330
17
100
AcDbEntity
  8
HOLES
100
AcDbCircle
 10
38.1
 20
22.86
 30
0.0
 40
3.175
  0
TEXT
  5
36
330
17
100
AcDbEntity
  8
ENGRAVE
100
AcDbText
 10
20.6375
 20
22.86
 30
0.0
 40
3.0479999999999996
  1
FRONT-T
 72
1
 11
20.6375
 21
22.86
 31
0.0
100
AcDbText
 73
2
  0
LWPOLYLINE
  5
37
330
17
100
AcDbEntity
  8
CUT
100
AcDbPolyline
 90
5
 70
1
 10
53.974999999999994
 20
10.16
 10
165.1
 20
10.16
 10
165.1
 20
35.56
 10
53.974999999999994
 20
35.56
 10
53.974999999999994
 20
10.16
  0
CIRCLE
  5
38
330
17
100
AcDbEntity
  8
HOLES
100
AcDbCircle
 10
57.14999999999999
 20
22.86
 30
0.0
 40
3.175
  0
CIRCLE
  5
39
330
17
100
AcDbEntity
  8
HOLES
100
AcDbCircle
 10
161.92499999999998
 20
22.86
 30
0.0
 40
3.175
  0
TEXT
  5
3A
330
17
100
AcDbEntity
  8
ENGRAVE
100
AcDbText
 10
109.5375
 20
22.86
 30
0.0
 40
3.0479999999999996
  1
FRONT-S
 72
1
 11
109.5375
 21
22.86
 31
0.0
100
AcDbText
 73
2
  0
LWPOLYLINE
  5
3B
330
17
100
AcDbEntity
  8
CUT
100
AcDbPolyline
 90
5
 70
1
 10
177.8
 20
10.16
 10
298.45
 20
10.16
 10
298.45
 20
35.56
 10
177.8
 20
35.56
 10
177.8
 20
10.16
  0
CIRCLE
  5
3C
330
17
100
AcDbEntity
  8
HOLES
100
AcDbCircle
 10
180.97500000000002
 20
22.86
 30
0.0
 40
3.175
  0
CIRCLE
  5
3D
330
17
100
AcDbEntity
  8
HOLES
100
AcDbCircle
 10
295.275
 20
22.86
 30
0.0
 40
3.175
  0
TEXT
  5
3E
330
17
100
AcDbEntity
  8
ENGRAVE
100
AcDbText
 10
238.125
 20
22.86
 30
0.0
 40
3.0479999999999996
  1
FRONT-V
 72
1
 11
238.125
 21
22.86
 31
0.0
100
AcDbText
 73
2
  0
LWPOLYLINE
  5
3F
330
17
100
AcDbEntity
  8
CUT
100
AcDbPolyline
 90
5
 70
1
 10
311.15
 20
10.16
 10
441.32499999999993
 20
10.16
 10
441.32499999999993
 20
35.56
 10
311.15
 20
35.56
 10
311.15
 20
10.16
  0
CIRCLE
  5
40
330
17
100
AcDbEntity
  8
HOLES
100
AcDbCircle
 10
314.325
 20
22.86
 30
0.0
 40
3.175
  0
CIRCLE
  5
41
330
17
100
AcDbEntity
  8
HOLES
100
AcDbCircle
 10
438.1499999999999
 20
22.86
 30
0.0
 40
3.175
  0
TEXT
  5
42
330
17
100
AcDbEntity
  8
ENGRAVE
100
AcDbText
 10
376.23749999999995
 20
22.86
 30
0.0
 40
3.0479999999999996
  1
FRONT-L
 72
1
 11
376.23749999999995
 21
22.86
 31
0.0
100
AcDbText
 73
2
  0
TEXT
  5
43
330
17
100
AcDbEntity
  8
ENGRAVE
100
AcDbText
 10
0.0
 20
431.79999999999995
 30
0.0
 40
6.35
  1
BACK PANELS (14" tall)
 11
0.0
 21
431.79999999999995
 31
0.0
100
AcDbText
  0
LWPOLYLINE
  5
44
330
17
100
AcDbEntity
  8
CUT
100
AcDbPolyline
 90
5
 70
1
 10
0.0
 20
71.11999999999999
 10
41.275
 20
71.11999999999999
 10
41.275
 20
426.71999999999997
 10
0.0
 20
426.71999999999997
 10
0.0
 20
71.11999999999999
  0
CIRCLE
  5
45
330
17
100
AcDbEntity
  8
HOLES
100
AcDbCircle
 10
3.175
 20
109.21999999999998
 30
0.0
 40
3.175
  0
CIRCLE
  5
46
330
17
100
AcDbEntity
  8
HOLES
100
AcDbCircle
 10
38.1
 20
109.21999999999998
 30
0.0
 40
3.175
  0
CIRCLE
  5
47
330
17
100
AcDbEntity
  8
HOLES
100
AcDbCircle
 10
3.175
 20
185.42
 30
0.0
 40
3.175
  0
CIRCLE
  5
48
330
17
100
AcDbEntity
  8
HOLES
100
AcDbCircle
 10
38.1
 20
185.42
 30
0.0
 40
3.175
  0
CIRCLE
  5
49
330
17
100
AcDbEntity
  8
HOLES
100
AcDbCircle
 10
3.175
 20
261.62
 30
0.0
 40
3.175
  0
CIRCLE
  5
4A
330
17
100
AcDbEntity
  8
HOLES
100
AcDbCircle
 10
38.1
 20
261.62
 30
0.0
 40
3.175
  0
CIRCLE
  5
4B
330
17
100
AcDbEntity
  8
HOLES
100
AcDbCircle
 10
3.175
 20
337.82
 30
0.0
 40
3.175
  0
CIRCLE
  5
4C
330
17
100
AcDbEntity
  8
HOLES
100
AcDbCircle
 10
38.1
 20
337.82
 30
0.0
 40
3.175
  0
CIRCLE
  5
4D
330
17
100
AcDbEntity
  8
HOLES
100
AcDbCircle
 10
3.175
 20
401.32
 30
0.0
 40
3.175
  0
CIRCLE
  5
4E
330
17
100
AcDbEntity
  8
HOLES
100
AcDbCircle
 10
38.1
 20
401.32
 30
0.0
 40
3.175
  0
TEXT
  5
4F
330
17
100
AcDbEntity
  8
ENGRAVE
100
AcDbText
 10
20.6375
 20
248.91999999999996
 30
0.0
 40
4.571999999999999
  1
BACK-T
 72
1
 11
20.6375
 21
248.91999999999996
 31
0.0
100
AcDbText
 73
2
  0
LWPOLYLINE
  5
50
330
17
100
AcDbEntity
  8
CUT
100
AcDbPolyline
 90
5
 70
1
 10
53.974999999999994
 20
71.11999999999999
 10
165.1
 20
71.11999999999999
 10
165.1
 20
426.71999999999997
 10
53.974999999999994
 20
426.71999999999997
 10
53.974999999999994
 20
71.11999999999999
  0
CIRCLE
  5
51
330
17
100
AcDbEntity
  8
HOLES
100
AcDbCircle
 10
57.14999999999999
 20
109.21999999999998
 30
0.0
 40
3.175
  0
CIRCLE
  5
52
330
17
100
AcDbEntity
  8
HOLES
100
AcDbCircle
 10
161.92499999999998
 20
109.21999999999998
 30
0.0
 40
3.175
  0
CIRCLE
  5
53
330
17
100
AcDbEntity
  8
HOLES
100
AcDbCircle
 10
57.14999999999999
 20
185.42
 30
0.0
 40
3.175
  0
CIRCLE
  5
54
330
17
100
AcDbEntity
  8
HOLES
100
AcDbCircle
 10
161.92499999999998
 20
185.42
 30
0.0
 40
3.175
  0
CIRCLE
  5
55
330
17
100
AcDbEntity
  8
HOLES
100
AcDbCircle
 10
57.14999999999999
 20
261.62
 30
0.0
 40
3.175
  0
CIRCLE
  5
56
330
17
100
AcDbEntity
  8
HOLES
100
AcDbCircle
 10
161.92499999999998
 20
261.62
 30
0.0
 40
3.175
  0
CIRCLE
  5
57
330
17
100
AcDbEntity
  8
HOLES
100
AcDbCircle
 10
57.14999999999999
 20
337.82
 30
0.0
 40
3.175
  0
CIRCLE
  5
58
330
17
100
AcDbEntity
  8
HOLES
100
AcDbCircle
 10
161.92499999999998
 20
337.82
 30
0.0
 40
3.175
  0
CIRCLE
  5
59
330
17
100
AcDbEntity
  8
HOLES
100
AcDbCircle
 10
57.14999999999999
 20
401.32
 30
0.0
 40
3.175
  0
CIRCLE
  5
5A
330
17
100
AcDbEntity
  8
HOLES
100
AcDbCircle
 10
161.92499999999998
 20
401.32
 30
0.0
 40
3.175
  0
TEXT
  5
5B
330
17
100
AcDbEntity
  8
ENGRAVE
100
AcDbText
 10
109.5375
 20
248.91999999999996
 30
0.0
 40
4.571999999999999
  1
BACK-S
 72
1
 11
109.5375
 21
248.91999999999996
 31
0.0
100
AcDbText
 73
2
  0
LWPOLYLINE
  5
5C
330
17
100
AcDbEntity
  8
CUT
100
AcDbPolyline
 90
5
 70
1
 10
177.8
 20
71.11999999999999
 10
298.45
 20
71.11999999999999
 10
298.45
 20
426.71999999999997
 10
177.8
 20
426.71999999999997
 10
177.8
 20
71.11999999999999
  0
CIRCLE
  5
5D
330
17
100
AcDbEntity
  8
HOLES
100
AcDbCircle
 10
180.97500000000002
 20
109.21999999999998
 30
0.0
 40
3.175
  0
CIRCLE
  5
5E
330
17
100
AcDbEntity
  8
HOLES
100
AcDbCircle
 10
295.275
 20
109.21999999999998
 30
0.0
 40
3.175
  0
CIRCLE
  5
5F
330
17
100
AcDbEntity
  8
HOLES
100
AcDbCircle
 10
180.97500000000002
 20
185.42
 30
0.0
 40
3.175
  0
CIRCLE
  5
60
330
17
100
AcDbEntity
  8
HOLES
100
AcDbCircle
 10
295.275
 20
185.42
 30
0.0
 40
3.175
  0
CIRCLE
  5
61
330
17
100
AcDbEntity
  8
HOLES
100
AcDbCircle
 10
180.97500000000002
 20
261.62
 30
0.0
 40
3.175
  0
CIRCLE
  5
62
330
17
100
AcDbEntity
  8
HOLES
100
AcDbCircle
 10
295.275
 20
261.62
 30
0.0
 40
3.175
  0
CIRCLE
  5
63
330
17
100
AcDbEntity
  8
HOLES
100
AcDbCircle
 10
180.97500000000002
 20
337.82
 30
0.0
 40
3.175
  0
CIRCLE
  5
64
330
17
100
AcDbEntity
  8
HOLES
100
AcDbCircle
 10
295.275
 20
337.82
 30
0.0
 40
3.175
  0
CIRCLE
  5
65
330
17
100
AcDbEntity
  8
HOLES
100
AcDbCircle
 10
180.97500000000002
 20
401.32
 30
0.0
 40
3.175
  0
CIRCLE
  5
66
330
17
100
AcDbEntity
  8
HOLES
100
AcDbCircle
 10
295.275
 20
401.32
 30
0.0
 40
3.175
  0
TEXT
  5
67
330
17
100
AcDbEntity
  8
ENGRAVE
100
AcDbText
 10
238.125
 20
248.91999999999996
 30
0.0
 40
4.571999999999999
  1
BACK-V
 72
1
 11
238.125
 21
248.91999999999996
 31
0.0
100
AcDbText
 73
2
  0
LWPOLYLINE
  5
68
330
17
100
AcDbEntity
  8
CUT
100
AcDbPolyline
 90
5
 70
1
 10
311.15
 20
71.11999999999999
 10
441.32499999999993
 20
71.11999999999999
 10
441.32499999999993
 20
426.71999999999997
 10
311.15
 20
426.71999999999997
 10
311.15
 20
71.11999999999999
  0
CIRCLE
  5
69
330
17
100
AcDbEntity
  8
HOLES
100
AcDbCircle
 10
314.325
 20
109.21999999999998
 30
0.0
 40
3.175
  0
CIRCLE
  5
6A
330
17
100
AcDbEntity
  8
HOLES
100
AcDbCircle
 10
438.1499999999999
 20
109.21999999999998
 30
0.0
 40
3.175
  0
CIRCLE
  5
6B
330
17
100
AcDbEntity
  8
HOLES
100
AcDbCircle
 10
314.325
 20
185.42
 30
0.0
 40
3.175
  0
CIRCLE
  5
6C
330
17
100
AcDbEntity
  8
HOLES
100
AcDbCircle
 10
438.1499999999999
 20
185.42
 30
0.0
 40
3.175
  0
CIRCLE
  5
6D
330
17
100
AcDbEntity
  8
HOLES
100
AcDbCircle
 10
314.325
 20
261.62
 30
0.0
 40
3.175
  0
CIRCLE
  5
6E
330
17
100
AcDbEntity
  8
HOLES
100
AcDbCircle
 10
438.1499999999999
 20
261.62
 30
0.0
 40
3.175
  0
CIRCLE
  5
6F
330
17
100
AcDbEntity
  8
HOLES
100
AcDbCircle
 10
314.325
 20
337.82
 30
0.0
 40
3.175
  0
CIRCLE
  5
70
330
17
100
AcDbEntity
  8
HOLES
100
AcDbCircle
 10
438.1499999999999
 20
337.82
 30
0.0
 40
3.175
  0
CIRCLE
  5
71
330
17
100
AcDbEntity
  8
HOLES
100
AcDbCircle
 10
314.325
 20
401.32
 30
0.0
 40
3.175
  0
CIRCLE
  5
72
330
17
100
AcDbEntity
  8
HOLES
100
AcDbCircle
 10
438.1499999999999
 20
401.32
 30
0.0
 40
3.175
  0
TEXT
  5
73
330
17
100
AcDbEntity
  8
ENGRAVE
100
AcDbText
 10
376.23749999999995
 20
248.91999999999996
 30
0.0
 40
4.571999999999999
  1
BACK-L
 72
1
 11
376.23749999999995
 21
248.91999999999996
 31
0.0
100
AcDbText
 73
2
  0
TEXT
  5
74
330
17
100
AcDbEntity
  8
ENGRAVE
100
AcDbText
 10
0.0
 20
689.6099999999999
 30
0.0
 40
6.35
  1
RAMPS (8.75" long) - Holes at 0.25" from each end
 11
0.0
 21
689.6099999999999
 31
0.0
100
AcDbText
  0
LWPOLYLINE
  5
75
330
17
100
AcDbEntity
  8
CUT
100
AcDbPolyline
 90
5
 70
1
 10
0.0
 20
462.28
 10
41.275
 20
462.28
 10
41.275
 20
684.53
 10
0.0
 20
684.53
 10
0.0
 20
462.28
  0
CIRCLE
  5
76
330
17
100
AcDbEntity
  8
HOLES
100
AcDbCircle
 10
20.6375
 20
468.63
 30
0.0
 40
3.175
  0
CIRCLE
  5
77
330
17
100
AcDbEntity
  8
HOLES
100
AcDbCircle
 10
20.6375
 20
678.18
 30
0.0
 40
3.175
  0
TEXT
  5
78
330
17
100
AcDbEntity
  8
ENGRAVE
100
AcDbText
 10
20.6375
 20
573.405
 30
0.0
 40
3.8099999999999996
  1
RAMP-T1
 72
1
 11
20.6375
 21
573.405
 31
0.0
100
AcDbText
 73
2
  0
LWPOLYLINE
  5
79
330
17
100
AcDbEntity
  8
CUT
100
AcDbPolyline
 90
5
 70
1
 10
53.974999999999994
 20
462.28
 10
95.25
 20
462.28
 10
95.25
 20
684.53
 10
53.974999999999994
 20
684.53
 10
53.974999999999994
 20
462.28
  0
CIRCLE
  5
7A
330
17
100
AcDbEntity
  8
HOLES
100
AcDbCircle
 10
74.6125
 20
468.63
 30
0.0
 40
3.175
  0
CIRCLE
  5
7B
330
17
100
AcDbEntity
  8
HOLES
100
AcDbCircle
 10
74.6125
 20
678.18
 30
0.0
 40
3.175
  0
TEXT
  5
7C
330
17
100
AcDbEntity
  8
ENGRAVE
100
AcDbText
 10
74.6125
 20
573.405
 30
0.0
 40
3.8099999999999996
  1
RAMP-T2
 72
1
 11
74.6125
 21
573.405
 31
0.0
100
AcDbText
 73
2
  0
LWPOLYLINE
  5
7D
330
17
100
AcDbEntity
  8
CUT
100
AcDbPolyline
 90
5
 70
1
 10
120.64999999999999
 20
462.28
 10
231.77499999999998
 20
462.28
 10
231.77499999999998
 20
684.53
 10
120.64999999999999
 20
684.53
 10
120.64999999999999
 20
462.28
  0
CIRCLE
  5
7E
330
17
100
AcDbEntity
  8
HOLES
100
AcDbCircle
 10
176.21249999999998
 20
468.63
 30
0.0
 40
3.175
  0
CIRCLE
  5
7F
330
17
100
AcDbEntity
  8
HOLES
100
AcDbCircle
 10
176.21249999999998
 20
678.18
 30
0.0
 40
3.175
  0
TEXT
  5
80
330
17
100
AcDbEntity
  8
ENGRAVE
100
AcDbText
 10
176.21249999999998
 20
573.405
 30
0.0
 40
3.8099999999999996
  1
RAMP-S1
 72
1
 11
176.21249999999998
 21
573.405
 31
0.0
100
AcDbText
 73
2
  0
LWPOLYLINE
  5
81
330
17
100
AcDbEntity
  8
CUT
100
AcDbPolyline
 90
5
 70
1
 10
244.475
 20
462.28
 10
355.6
 20
462.28
 10
355.6
 20
684.53
 10
244.475
 20
684.53
 10
244.475
 20
462.28
  0
CIRCLE
  5
82
330
17
100
AcDbEntity
  8
HOLES
100
AcDbCircle
 10
300.0375
 20
468.63
 30
0.0
 40
3.175
  0
CIRCLE
  5
83
330
17
100
AcDbEntity
  8
HOLES
100
AcDbCircle
 10
300.0375
 20
678.18
 30
0.0
 40
3.175
  0
TEXT
  5
84
330
17
100
AcDbEntity
  8
ENGRAVE
100
AcDbText
 10
300.0375
 20
573.405
 30
0.0
 40
3.8099999999999996
  1
RAMP-S2
 72
1
 11
300.0375
 21
573.405
 31
0.0
100
AcDbText
 73
2
  0
LWPOLYLINE
  5
85
330
17
100
AcDbEntity
  8
CUT
100
AcDbPolyline
 90
5
 70
1
 10
368.3
 20
462.28
 10
479.425
 20
462.28
 10
479.425
 20
684.53
 10
368.3
 20
684.53
 10
368.3
 20
462.28
  0
CIRCLE
  5
86
330
17
100
AcDbEntity
  8
HOLES
100
AcDbCircle
 10
423.8625
 20
468.63
 30
0.0
 40
3.175
  0
CIRCLE
  5
87
330
17
100
AcDbEntity
  8
HOLES
100
AcDbCircle
 10
423.8625
 20
678.18
 30
0.0
 40
3.175
  0
TEXT
  5
88
330
17
100
AcDbEntity
  8
ENGRAVE
100
AcDbText
 10
423.8625
 20
573.405
 30
0.0
 40
3.8099999999999996
  1
RAMP-S3
 72
1
 11
423.8625
 21
573.405
 31
0.0
100
AcDbText
 73
2
  0
LWPOLYLINE
  5
89
330
17
100
AcDbEntity
  8
CUT
100
AcDbPolyline
 90
5
 70
1
 10
492.125
 20
462.28
 10
603.25
 20
462.28
 10
603.25
 20
684.53
 10
492.125
 20
684.53
 10
492.125
 20
462.28
  0
CIRCLE
  5
8A
330
17
100
AcDbEntity
  8
HOLES
100
AcDbCircle
 10
547.6875
 20
468.63
 30
0.0
 40
3.175
  0
CIRCLE
  5
8B
330
17
100
AcDbEntity
  8
HOLES
100
AcDbCircle
 10
547.6875
 20
678.18
 30
0.0
 40
3.175
  0
TEXT
  5
8C
330
17
100
AcDbEntity
  8
ENGRAVE
100
AcDbText
 10
547.6875
 20
573.405
 30
0.0
 40
3.8099999999999996
  1
RAMP-S4
 72
1
 11
547.6875
 21
573.405
 31
0.0
100
AcDbText
 73
2
  0
LWPOLYLINE
  5
8D
330
17
100
AcDbEntity
  8
CUT
100
AcDbPolyline
 90
5
 70
1
 10
628.6500000000001
 20
462.28
 10
749.3000000000001
 20
462.28
 10
749.3000000000001
 20
684.53
 10
628.6500000000001
 20
684.53
 10
628.6500000000001
 20
462.28
  0
CIRCLE
  5
8E
330
17
100
AcDbEntity
  8
HOLES
100
AcDbCircle
 10
688.9750000000001
 20
468.63
 30
0.0
 40
3.175
  0
CIRCLE
  5
8F
330
17
100
AcDbEntity
  8
HOLES
100
AcDbCircle
 10
688.9750000000001
 20
678.18
 30
0.0
 40
3.175
  0
TEXT
  5
90
330
17
100
AcDbEntity
  8
ENGRAVE
100
AcDbText
 10
688.9750000000001
 20
573.405
 30
0.0
 40
3.8099999999999996
  1
RAMP-V1
 72
1
 11
688.9750000000001
 21
573.405
 31
0.0
100
AcDbText
 73
2
  0
LWPOLYLINE
  5
91
330
17
100
AcDbEntity
  8
CUT
100
AcDbPolyline
 90
5
 70
1
 10
762.0000000000001
 20
462.28
 10
882.6500000000001
 20
462.28
 10
882.6500000000001
 20
684.53
 10
762.0000000000001
 20
684.53
 10
762.0000000000001
 20
462.28
  0
CIRCLE
  5
92
330
17
100
AcDbEntity
  8
HOLES
100
AcDbCircle
 10
822.3250000000002
 20
468.63
 30
0.0
 40
3.175
  0
CIRCLE
  5
93
330
17
100
AcDbEntity
  8
HOLES
100
AcDbCircle
 10
822.3250000000002
 20
678.18
 30
0.0
 40
3.175
  0
TEXT
  5
94
330
17
100
AcDbEntity
  8
ENGRAVE
100
AcDbText
 10
822.3250000000002
 20
573.405
 30
0.0
 40
3.8099999999999996
  1
RAMP-V2
 72
1
 11
822.3250000000002
 21
573.405
 31
0.0
100
AcDbText
 73
2
  0
LWPOLYLINE
  5
95
330
17
100
AcDbEntity
  8
CUT
100
AcDbPolyline
 90
5
 70
1
 10
908.0500000000002
 20
462.28
 10
1038.2250000000001
 20
462.28
 10
1038.2250000000001
 20
684.53
 10
908.0500000000002
 20
684.53
 10
908.0500000000002
 20
462.28
  0
CIRCLE
  5
96
330
17
100
AcDbEntity
  8
HOLES
100
AcDbCircle
 10
973.1375000000002
 20
468.63
 30
0.0
 40
3.175
  0
CIRCLE
  5
97
330
17
100
AcDbEntity
  8
HOLES
100
AcDbCircle
 10
973.1375000000002
 20
678.18
 30
0.0
 40
3.175
  0
TEXT
  5
98
330
17
100
AcDbEntity
  8
ENGRAVE
100
AcDbText
 10
973.1375000000002
 20
573.405
 30
0.0
 40
3.8099999999999996
  1
RAMP-L1
 72
1
 11
973.1375000000002
 21
573.405
 31
0.0
100
AcDbText
 73
2
  0
LWPOLYLINE
  5
99
330
17
100
AcDbEntity
  8
CUT
100
AcDbPolyline
 90
5
 70
1
 10
1050.9250000000002
 20
462.28
 10
1181.1000000000001
 20
462.28
 10
1181.1000000000001
 20
684.53
 10
1050.9250000000002
 20
684.53
 10
1050.9250000000002
 20
462.28
  0
CIRCLE
  5
9A
330
17
100
AcDbEntity
  8
HOLES
100
AcDbCircle
 10
1116.0125000000003
 20
468.63
 30
0.0
 40
3.175
  0
CIRCLE
  5
9B
330
17
100
AcDbEntity
  8
HOLES
100
AcDbCircle
 10
1116.0125000000003
 20
678.18
 30
0.0
 40
3.175
  0
TEXT
  5
9C
330
17
100
AcDbEntity
  8
ENGRAVE
100
AcDbText
 10
1116.0125000000003
 20
573.405
 30
0.0
 40
3.8099999999999996
  1
RAMP-L2
 72
1
 11
1116.0125000000003
 21
573.405
 31
0.0
100
AcDbText
 73
2
  0
TEXT
  5
9D
330
17
100
AcDbEntity
  8
ENGRAVE
100
AcDbText
 10
0.0
 20
862.3299999999999
 30
0.0
 40
6.35
  1
DEFLECTORS (45° triangles - glued in place)
 11
0.0
 21
862.3299999999999
 31
0.0
100
AcDbText
  0
LWPOLYLINE
  5
9E
330
17
100
AcDbEntity
  8
CUT
100
AcDbPolyline
 90
4
 70
1
 10
0.0
 20
720.0899999999999
 10
41.275
 20
720.0899999999999
 10
0.0
 20
761.3649999999999
 10
0.0
 20
720.0899999999999
  0
TEXT
  5
9F
330
17
100
AcDbEntity
  8
ENGRAVE
100
AcDbText
 10
13.758333333333333
 20
733.8483333333332
 30
0.0
 40
3.0479999999999996
  1
DEF-T1
 72
1
 11
13.758333333333333
 21
733.8483333333332
 31
0.0
100
AcDbText
 73
2
  0
LWPOLYLINE
  5
A0
330
17
100
AcDbEntity
  8
CUT
100
AcDbPolyline
 90
4
 70
1
 10
66.675
 20
720.0899999999999
 10
177.8
 20
720.0899999999999
 10
66.675
 20
831.2149999999999
 10
66.675
 20
720.0899999999999
  0
TEXT
  5
A1
330
17
100
AcDbEntity
  8
ENGRAVE
100
AcDbText
 10
103.71666666666667
 20
757.1316666666665
 30
0.0
 40
3.0479999999999996
  1
DEF-S1
 72
1
 11
103.71666666666667
 21
757.1316666666665
 31
0.0
100
AcDbText
 73
2
  0
LWPOLYLINE
  5
A2
330
17
100
AcDbEntity
  8
CUT
100
AcDbPolyline
 90
4
 70
1
 10
190.5
 20
720.0899999999999
 10
301.625
 20
720.0899999999999
 10
190.5
 20
831.2149999999999
 10
190.5
 20
720.0899999999999
  0
TEXT
  5
A3
330
17
100
AcDbEntity
  8
ENGRAVE
100
AcDbText
 10
227.54166666666666
 20
757.1316666666665
 30
0.0
 40
3.0479999999999996
  1
DEF-S2
 72
1
 11
227.54166666666666
 21
757.1316666666665
 31
0.0
100
AcDbText
 73
2
  0
LWPOLYLINE
  5
A4
330
17
100
AcDbEntity
  8
CUT
100
AcDbPolyline
 90
4
 70
1
 10
314.325
 20
720.0899999999999
 10
425.45
 20
720.0899999999999
 10
314.325
 20
831.2149999999999
 10
314.325
 20
720.0899999999999
  0
TEXT
  5
A5
330
17
100
AcDbEntity
  8
ENGRAVE
100
AcDbText
 10
351.3666666666667
 20
757.1316666666665
 30
0.0
 40
3.0479999999999996
  1
DEF-S3
 72
1
 11
351.3666666666667
 21
757.1316666666665
 31
0.0
100
AcDbText
 73
2
  0
LWPOLYLINE
  5
A6
330
17
100
AcDbEntity
  8
CUT
100
AcDbPolyline
 90
4
 70
1
 10
450.84999999999997
 20
720.0899999999999
 10
571.5
 20
720.0899999999999
 10
450.84999999999997
 20
840.7399999999999
 10
450.84999999999997
 20
720.0899999999999
  0
TEXT
  5
A7
330
17
100
AcDbEntity
  8
ENGRAVE
100
AcDbText
 10
491.0666666666666
 20
760.3066666666666
 30
0.0
 40
3.0479999999999996
  1
DEF-V1
 72
1
 11
491.0666666666666
 21
760.3066666666666
 31
0.0
100
AcDbText
 73
2
  0
LWPOLYLINE
  5
A8
330
17
100
AcDbEntity
  8
CUT
100
AcDbPolyline
 90
4
 70
1
 10
596.9
 20
720.0899999999999
 10
727.0749999999999
 20
720.0899999999999
 10
596.9
 20
850.2649999999999
 10
596.9
 20
720.0899999999999
  0
TEXT
  5
A9
330
17
100
AcDbEntity
  8
ENGRAVE
100
AcDbText
 10
640.2916666666666
 20
763.4816666666666
 30
0.0
 40
3.0479999999999996
  1
DEF-L1
 72
1
 11
640.2916666666666
 21
763.4816666666666
 31
0.0
100
AcDbText
 73
2
  0
TEXT
  5
AA
330
17
100
AcDbEntity
  8
ENGRAVE
100
AcDbText
 10
0.0
 20
1125.855
 30
0.0
 40
6.35
  1
BASE PANELS (9.25" deep)
 11
0.0
 21
1125.855
 31
0.0
100
AcDbText
  0
LWPOLYLINE
  5
AB
330
17
100
AcDbEntity
  8
CUT
100
AcDbPolyline
 90
5
 70
1
 10
0.0
 20
885.8249999999999
 10
41.275
 20
885.8249999999999
 10
41.275
 20
1120.7749999999999
 10
0.0
 20
1120.7749999999999
 10
0.0
 20
885.8249999999999
  0
CIRCLE
  5
AC
330
17
100
AcDbEntity
  8
HOLES
100
AcDbCircle
 10
3.175
 20
898.525
 30
0.0
 40
3.175
  0
CIRCLE
  5
AD
330
17
100
AcDbEntity
  8
HOLES
100
AcDbCircle
 10
38.1
 20
898.525
 30
0.0
 40
3.175
  0
CIRCLE
  5
AE
330
17
100
AcDbEntity
  8
HOLES
100
AcDbCircle
 10
3.175
 20
1003.3
 30
0.0
 40
3.175
  0
CIRCLE
  5
AF
330
17
100
AcDbEntity
  8
HOLES
100
AcDbCircle
 10
38.1
 20
1003.3
 30
0.0
 40
3.175
  0
CIRCLE
  5
B0
330
17
100
AcDbEntity
  8
HOLES
100
AcDbCircle
 10
3.175
 20
1108.0749999999998
 30
0.0
 40
3.175
  0
CIRCLE
  5
B1
330
17
100
AcDbEntity
  8
HOLES
100
AcDbCircle
 10
38.1
 20
1108.0749999999998
 30
0.0
 40
3.175
  0
TEXT
  5
B2
330
17
100
AcDbEntity
  8
ENGRAVE
100
AcDbText
 10
20.6375
 20
1003.3
 30
0.0
 40
3.8099999999999996
  1
BASE-T
 72
1
 11
20.6375
 21
1003.3
 31
0.0
100
AcDbText
 73
2
  0
LWPOLYLINE
  5
B3
330
17
100
AcDbEntity
  8
CUT
100
AcDbPolyline
 90
5
 70
1
 10
53.974999999999994
 20
885.8249999999999
 10
165.1
 20
885.8249999999999
 10
165.1
 20
1120.7749999999999
 10
53.974999999999994
 20
1120.7749999999999
 10
53.974999999999994
 20
885.8249999999999
  0
CIRCLE
  5
B4
330
17
100
AcDbEntity
  8
HOLES
100
AcDbCircle
 10
57.14999999999999
 20
898.525
 30
0.0
 40
3.175
  0
CIRCLE
  5
B5
330
17
100
AcDbEntity
  8
HOLES
100
AcDbCircle
 10
161.92499999999998
 20
898.525
 30
0.0
 40
3.175
  0
CIRCLE
  5
B6
330
17
100
AcDbEntity
  8
HOLES
100
AcDbCircle
 10
57.14999999999999
 20
1003.3
 30
0.0
 40
3.175
  0
CIRCLE
  5
B7
330
17
100
AcDbEntity
  8
HOLES
100
AcDbCircle
 10
161.92499999999998
 20
1003.3
 30
0.0
 40
3.175
  0
CIRCLE
  5
B8
330
17
100
AcDbEntity
  8
HOLES
100
AcDbCircle
 10
57.14999999999999
 20
1108.0749999999998
 30
0.0
 40
3.175
  0
CIRCLE
  5
B9
330
17
100
AcDbEntity
  8
HOLES
100
AcDbCircle
 10
161.92499999999998
 20
1108.0749999999998
 30
0.0
 40
3.175
  0
TEXT
  5
BA
330
17
100
AcDbEntity
  8
ENGRAVE
100
AcDbText
 10
109.5375
 20
1003.3
 30
0.0
 40
3.8099999999999996
  1
BASE-S
 72
1
 11
109.5375
 21
1003.3
 31
0.0
100
AcDbText
 73
2
  0
LWPOLYLINE
  5
BB
330
17
100
AcDbEntity
  8
CUT
100
AcDbPolyline
 90
5
 70
1
 10
177.8
 20
885.8249999999999
 10
298.45
 20
885.8249999999999
 10
298.45
 20
1120.7749999999999
 10
177.8
 20
1120.7749999999999
 10
177.8
 20
885.8249999999999
  0
CIRCLE
  5
BC
330
17
100
AcDbEntity
  8
HOLES
100
AcDbCircle
 10
180.97500000000002
 20
898.525
 30
0.0
 40
3.175
  0
CIRCLE
  5
BD
330
17
100
AcDbEntity
  8
HOLES
100
AcDbCircle
 10
295.275
 20
898.525
 30
0.0
 40
3.175
  0
CIRCLE
  5
BE
330
17
100
AcDbEntity
  8
HOLES
100
AcDbCircle
 10
180.97500000000002
 20
1003.3
 30
0.0
 40
3.175
  0
CIRCLE
  5
BF
330
17
100
AcDbEntity
  8
HOLES
100
AcDbCircle
 10
295.275
 20
1003.3
 30
0.0
 40
3.175
  0
CIRCLE
  5
C0
330
17
100
AcDbEntity
  8
HOLES
100
AcDbCircle
 10
180.97500000000002
 20
1108.0749999999998
 30
0.0
 40
3.175
  0
CIRCLE
  5
C1
330
17
100
AcDbEntity
  8
HOLES
100
AcDbCircle
 10
295.275
 20
1108.0749999999998
 30
0.0
 40
3.175
  0
TEXT
  5
C2
330
17
100
AcDbEntity
  8
ENGRAVE
100
AcDbText
 10
238.125
 20
1003.3
 30
0.0
 40
3.8099999999999996
  1
BASE-V
 72
1
 11
238.125
 21
1003.3
 31
0.0
100
AcDbText
 73
2
  0
LWPOLYLINE
  5
C3
330
17
100
AcDbEntity
  8
CUT
100
AcDbPolyline
 90
5
 70
1
 10
311.15
 20
885.8249999999999
 10
441.32499999999993
 20
885.8249999999999
 10
441.32499999999993
 20
1120.7749999999999
 10
311.15
 20
1120.7749999999999
 10
311.15
 20
885.8249999999999
  0
CIRCLE
  5
C4
330
17
100
AcDbEntity
  8
HOLES
100
AcDbCircle
 10
314.325
 20
898.525
 30
0.0
 40
3.175
  0
CIRCLE
  5
C5
330
17
100
AcDbEntity
  8
HOLES
100
AcDbCircle
 10
438.1499999999999
 20
898.525
 30
0.0
 40
3.175
  0
CIRCLE
  5
C6
330
17
100
AcDbEntity
  8
HOLES
100
AcDbCircle
 10
314.325
 20
1003.3
 30
0.0
 40
3.175
  0
CIRCLE
  5
C7
330
17
100
AcDbEntity
  8
HOLES
100
AcDbCircle
 10
438.1499999999999
 20
1003.3
 30
0.0
 40
3.175
  0
CIRCLE
  5
C8
330
17
100
AcDbEntity
  8
HOLES
100
AcDbCircle
 10
314.325
 20
1108.0749999999998
 30
0.0
 40
3.175
  0
CIRCLE
  5
C9
330
17
100
AcDbEntity
  8
HOLES
100
AcDbCircle
 10
438.1499999999999
 20
1108.0749999999998
 30
0.0
 40
3.175
  0
TEXT
  5
CA
330
17
100
AcDbEntity
  8
ENGRAVE
100
AcDbText
 10
376.23749999999995
 20
1003.3
 30
0.0
 40
3.8099999999999996
  1
BASE-L
 72
1
 11
376.23749999999995
 21
1003.3
 31
0.0
100
AcDbText
 73
2
  0
ENDSEC
  0
SECTION
  2
OBJECTS
  0
DICTIONARY
  5
A
330
0
100
AcDbDictionary
281
1
  3
ACAD_COLOR
350
B
  3
ACAD_GROUP
350
C
  3
ACAD_LAYOUT
350
D
  3
ACAD_MATERIAL
350
E
  3
ACAD_MLEADERSTYLE
350
F
  3
ACAD_MLINESTYLE
350
10
  3
ACAD_PLOTSETTINGS
350
11
  3
ACAD_PLOTSTYLENAME
350
12
  3
ACAD_SCALELIST
350
14
  3
ACAD_TABLESTYLE
350
15
  3
ACAD_VISUALSTYLE
350
16
  3
EZDXF_META
350
2D
  0
DICTIONARY
  5
B
330
A
100
AcDbDictionary
281
1
  0
DICTIONARY
  5
C
330
A
100
AcDbDictionary
281
1
  0
DICTIONARY
  5
D
330
A
100
AcDbDictionary
281
1
  3
Model
350
1A
  3
Layout1
350
1E
  0
DICTIONARY
  5
E
330
A
100
AcDbDictionary
281
1
  3
ByBlock
350
1F
  3
ByLayer
350
20
  3
Global
350
21
  0
DICTIONARY
  5
F
330
A
100
AcDbDictionary
281
1
  3
Standard
350
2C
  0
DICTIONARY
  5
10
330
A
100
AcDbDictionary
281
1
  3
Standard
350
22
  0
DICTIONARY
  5
11
330
A
100
AcDbDictionary
281
1
  0
ACDBDICTIONARYWDFLT
  5
12
330
A
100
AcDbDictionary
281
1
  3
Normal
350
13
100
AcDbDictionaryWithDefault
340
13
  0
ACDBPLACEHOLDER
  5
13
330
12
  0
DICTIONARY
  5
14
330
A
100
AcDbDictionary
281
1
  0
DICTIONARY
  5
15
330
A
100
AcDbDictionary
281
1
  0
DICTIONARY
  5
16
330
A
100
AcDbDictionary
281
1
  0
LAYOUT
  5
1A
330
D
100
AcDbPlotSettings
  1

  4
A3
  6

 40
7.5
 41
20.0
 42
7.5
 43
20.0
 44
420.0
 45
297.0
 46
0.0
 47
0.0
 48
0.0
 49
0.0
140
0.0
141
0.0
142
1.0
143
1.0
 70
1024
 72
1
 73
0
 74
5
  7

 75
16
 76
0
 77
2
 78
300
147
1.0
148
0.0
149
0.0
100
AcDbLayout
  1
Model
 70
1
 71
0
 10
0.0
 20
0.0
 11
420.0
 21
297.0
 12
0.0
 22
0.0
 32
0.0
 14
1e+20
 24
1e+20
 34
1e+20
 15
-1e+20
 25
-1e+20
 35
-1e+20
146
0.0
 13
0.0
 23
0.0
 33
0.0
 16
1.0
 26
0.0
 36
0.0
 17
0.0
 27
1.0
 37
0.0
 76
1
330
17
  0
LAYOUT
  5
1E
330
D
100
AcDbPlotSettings
  1

  4
A3
  6

 40
7.5
 41
20.0
 42
7.5
 43
20.0
 44
420.0
 45
297.0
 46
0.0
 47
0.0
 48
0.0
 49
0.0
140
0.0
141
0.0
142
1.0
143
1.0
 70
0
 72
1
 73
0
 74
5
  7

 75
16
 76
0
 77
2
 78
300
147
1.0
148
0.0
149
0.0
100
AcDbLayout
  1
Layout1
 70
1
 71
1
 10
0.0
 20
0.0
 11
420.0
 21
297.0
 12
0.0
 22
0.0
 32
0.0
 14
1e+20
 24
1e+20
 34
1e+20
 15
-1e+20
 25
-1e+20
 35
-1e+20
146
0.0
 13
0.0
 23
0.0
 33
0.0
 16
1.0
 26
0.0
 36
0.0
 17
0.0
 27
1.0
 37
0.0
 76
1
330
1B
  0
MATERIAL
  5
1F
102
{ACAD_REACTORS
330
E
102
}
330
E
100
AcDbMaterial
  1
ByBlock
  2

 70
0
 40
1.0
 71
1
 41
1.0
 91
-1023410177
 42
1.0
 72
1
  3

 73
1
 74
1
 75
1
 44
0.5
 73
0
 45
1.0
 46
1.0
 77
1
  4

 78
1
 79
1
170
1
 48
1.0
171
1
  6

172
1
173
1
174
1
140
1.0
141
1.0
175
1
  7

176
1
177
1
178
1
143
1.0
179
1
  8

270
1
271
1
272
1
145
1.0
146
1.0
273
1
  9

274
1
275
1
276
1
 42
1.0
 72
1
  3

 73
1
 74
1
 75
1
 94
63
  0
MATERIAL
  5
20
102
{ACAD_REACTORS
330
E
102
}
330
E
100
AcDbMaterial
  1
ByLayer
  2

 70
0
 40
1.0
 71
1
 41
1.0
 91
-1023410177
 42
1.0
 72
1
  3

 73
1
 74
1
 75
1
 44
0.5
 73
0
 45
1.0
 46
1.0
 77
1
  4

 78
1
 79
1
170
1
 48
1.0
171
1
  6

172
1
173
1
174
1
140
1.0
141
1.0
175
1
  7

176
1
177
1
178
1
143
1.0
179
1
  8

270
1
271
1
272
1
145
1.0
146
1.0
273
1
  9

274
1
275
1
276
1
 42
1.0
 72
1
  3

 73
1
 74
1
 75
1
 94
63
  0
MATERIAL
  5
21
102
{ACAD_REACTORS
330
E
102
}
330
E
100
AcDbMaterial
  1
Global
  2

 70
0
 40
1.0
 71
1
 41
1.0
 91
-1023410177
 42
1.0
 72
1
  3

 73
1
 74
1
 75
1
 44
0.5
 73
0
 45
1.0
 46
1.0
 77
1
  4

 78
1
 79
1
170
1
 48
1.0
171
1
  6

172
1
173
1
174
1
140
1.0
141
1.0
175
1
  7

176
1
177
1
178
1
143
1.0
179
1
  8

270
1
271
1
272
1
145
1.0
146
1.0
273
1
  9

274
1
275
1
276
1
 42
1.0
 72
1
  3

 73
1
 74
1
 75
1
 94
63
  0
MLINESTYLE
  5
22
102
{ACAD_REACTORS
330
10
102
}
330
10
100
AcDbMlineStyle
  2
Standard
 70
0
  3

 62
256
 51
90.0
 52
90.0
 71
2
 49
0.5
 62
256
  6
BYLAYER
 49
-0.5
 62
256
  6
BYLAYER
  0
MLEADERSTYLE
  5
2C
102
{ACAD_REACTORS
330
F
102
}
330
F
100
AcDbMLeaderStyle
179
2
170
2
171
1
172
0
 90
2
 40
0.0
 41
0.0
173
1
 91
-1056964608
 92
-2
290
1
 42
2.0
291
1
 43
8.0
  3
Standard
 44
4.0
300

342
29
174
1
175
1
176
0
178
1
 93
-1056964608
 45
4.0
292
0
297
0
 46
4.0
 94
-1056964608
 47
1.0
 49
1.0
140
1.0
294
1
141
0.0
177
0
142
1.0
295
0
296
0
143
3.75
271
0
272
9
273
9
  0
DICTIONARY
  5
2D
330
A
100
AcDbDictionary
280
1
281
1
  3
CREATED_BY_EZDXF
350
2E
  3
WRITTEN_BY_EZDXF
350
CD
  0
DICTIONARYVAR
  5
2E
330
2D
100
DictionaryVariables
280
0
  1
1.4.3 @ 2026-01-27T21:18:38.837063+00:00
  0
DICTIONARYVAR
  5
CD
330
2D
100
DictionaryVariables
280
0
  1
1.4.3 @ 2026-01-27T21:18:38.842046+00:00
  0
ENDSEC
  0
EOF
